<svg xmlns="http://www.w3.org/2000/svg" xmlns:xlink="http://www.w3.org/1999/xlink" width="1920px" height="1096px" viewBox="0 0 1920 1096" version="1.1">
    <!-- Generator: Sketch 58 (84663) - https://sketch.com -->
    <title>Bg-Space-0</title>
    <desc>Created with Sketch.</desc>
    <defs>
        <radialGradient cx="50%" cy="50%" fx="50%" fy="50%" r="47.7705681%" gradientTransform="translate(0.500000,0.500000),scale(1.000000,0.998656),rotate(43.992278),translate(-0.500000,-0.500000)" id="radialGradient-1">
            <stop stop-color="#FFFFFF" offset="0%"/>
            <stop stop-color="#FFFFE5" offset="9.48321368%"/>
            <stop stop-color="#FF722A" stop-opacity="0" offset="100%"/>
        </radialGradient>
        <filter x="-41.9%" y="-41.8%" width="183.7%" height="183.6%" filterUnits="objectBoundingBox" id="filter-2">
            <feGaussianBlur stdDeviation="6.36288318" in="SourceGraphic"/>
        </filter>
        <radialGradient cx="50%" cy="50%" fx="50%" fy="50%" r="48.3956281%" gradientTransform="translate(0.500000,0.500000),scale(0.974326,1.000000),rotate(43.209596),translate(-0.500000,-0.500000)" id="radialGradient-3">
            <stop stop-color="#FFFFFF" offset="0%"/>
            <stop stop-color="#FFFFE5" offset="9.48321368%"/>
            <stop stop-color="#FF722A" stop-opacity="0" offset="100%"/>
        </radialGradient>
        <filter x="-25.2%" y="-25.8%" width="150.4%" height="151.7%" filterUnits="objectBoundingBox" id="filter-4">
            <feGaussianBlur stdDeviation="6.36288318" in="SourceGraphic"/>
        </filter>
        <radialGradient cx="50%" cy="50%" fx="50%" fy="50%" r="48.4098277%" gradientTransform="translate(0.500000,0.500000),scale(0.973788,1.000000),rotate(43.193811),translate(-0.500000,-0.500000)" id="radialGradient-5">
            <stop stop-color="#FFFFFF" offset="0%"/>
            <stop stop-color="#FFFFE5" offset="9.48321368%"/>
            <stop stop-color="#FF722A" stop-opacity="0" offset="100%"/>
        </radialGradient>
        <filter x="-31.1%" y="-32.0%" width="162.2%" height="163.9%" filterUnits="objectBoundingBox" id="filter-6">
            <feGaussianBlur stdDeviation="6.36288318" in="SourceGraphic"/>
        </filter>
        <radialGradient cx="50%" cy="50%" fx="50%" fy="50%" r="48.3936005%" gradientTransform="translate(0.500000,0.500000),scale(0.974403,1.000000),rotate(43.211851),translate(-0.500000,-0.500000)" id="radialGradient-7">
            <stop stop-color="#FFFFFF" offset="0%"/>
            <stop stop-color="#FFFFE5" offset="9.48321368%"/>
            <stop stop-color="#FF722A" stop-opacity="0" offset="100%"/>
        </radialGradient>
        <filter x="-27.6%" y="-28.3%" width="155.2%" height="156.7%" filterUnits="objectBoundingBox" id="filter-8">
            <feGaussianBlur stdDeviation="6.36288318" in="SourceGraphic"/>
        </filter>
        <radialGradient cx="50%" cy="50%" fx="50%" fy="50%" r="48.3774758%" gradientTransform="translate(0.500000,0.500000),scale(0.975015,1.000000),rotate(43.229795),translate(-0.500000,-0.500000)" id="radialGradient-9">
            <stop stop-color="#FFFFFF" offset="0%"/>
            <stop stop-color="#FFFFE5" offset="9.48321368%"/>
            <stop stop-color="#FF722A" stop-opacity="0" offset="100%"/>
        </radialGradient>
        <filter x="-53.5%" y="-54.9%" width="207.0%" height="209.8%" filterUnits="objectBoundingBox" id="filter-10">
            <feGaussianBlur stdDeviation="6.36288318" in="SourceGraphic"/>
        </filter>
        <radialGradient cx="50%" cy="50%" fx="50%" fy="50%" r="48.3839512%" gradientTransform="translate(0.500000,0.500000),scale(0.974769,1.000000),rotate(43.222587),translate(-0.500000,-0.500000)" id="radialGradient-11">
            <stop stop-color="#FFFFFF" offset="0%"/>
            <stop stop-color="#FFFFE5" offset="9.48321368%"/>
            <stop stop-color="#FF722A" stop-opacity="0" offset="100%"/>
        </radialGradient>
        <filter x="-39.6%" y="-40.6%" width="179.1%" height="181.2%" filterUnits="objectBoundingBox" id="filter-12">
            <feGaussianBlur stdDeviation="6.36288318" in="SourceGraphic"/>
        </filter>
        <radialGradient cx="50%" cy="50%" fx="50%" fy="50%" r="47.7546019%" gradientTransform="translate(0.500000,0.500000),scale(1.000000,0.999348),rotate(43.972432),translate(-0.500000,-0.500000)" id="radialGradient-13">
            <stop stop-color="#FFFFFF" offset="0%"/>
            <stop stop-color="#FFFFE5" offset="9.48321368%"/>
            <stop stop-color="#FF722A" stop-opacity="0" offset="100%"/>
        </radialGradient>
        <filter x="-32.1%" y="-32.1%" width="164.3%" height="164.2%" filterUnits="objectBoundingBox" id="filter-14">
            <feGaussianBlur stdDeviation="6.36288318" in="SourceGraphic"/>
        </filter>
        <radialGradient cx="50%" cy="50%" fx="50%" fy="50%" r="48.3905034%" gradientTransform="translate(0.500000,0.500000),scale(0.974520,1.000000),rotate(43.215296),translate(-0.500000,-0.500000)" id="radialGradient-15">
            <stop stop-color="#FFFFFF" offset="0%"/>
            <stop stop-color="#FFFFE5" offset="9.48321368%"/>
            <stop stop-color="#FF722A" stop-opacity="0" offset="100%"/>
        </radialGradient>
        <filter x="-30.5%" y="-31.3%" width="160.9%" height="162.5%" filterUnits="objectBoundingBox" id="filter-16">
            <feGaussianBlur stdDeviation="6.36288318" in="SourceGraphic"/>
        </filter>
        <radialGradient cx="50%" cy="50%" fx="50%" fy="50%" r="47.7698449%" gradientTransform="translate(0.500000,0.500000),scale(1.000000,0.998687),rotate(43.991380),translate(-0.500000,-0.500000)" id="radialGradient-17">
            <stop stop-color="#FFFFFF" offset="0%"/>
            <stop stop-color="#FFFFE5" offset="9.48321368%"/>
            <stop stop-color="#FF722A" stop-opacity="0" offset="100%"/>
        </radialGradient>
        <filter x="-47.6%" y="-47.5%" width="195.1%" height="195.0%" filterUnits="objectBoundingBox" id="filter-18">
            <feGaussianBlur stdDeviation="6.36288318" in="SourceGraphic"/>
        </filter>
        <radialGradient cx="50%" cy="50%" fx="50%" fy="50%" r="47.7670088%" gradientTransform="translate(0.500000,0.500000),scale(1.000000,0.998810),rotate(43.987856),translate(-0.500000,-0.500000)" id="radialGradient-19">
            <stop stop-color="#FFFFFF" offset="0%"/>
            <stop stop-color="#FFFFE5" offset="9.48321368%"/>
            <stop stop-color="#FF722A" stop-opacity="0" offset="100%"/>
        </radialGradient>
        <filter x="-33.8%" y="-33.7%" width="167.5%" height="167.4%" filterUnits="objectBoundingBox" id="filter-20">
            <feGaussianBlur stdDeviation="6.36288318" in="SourceGraphic"/>
        </filter>
        <radialGradient cx="50%" cy="50%" fx="50%" fy="50%" r="47.7713521%" gradientTransform="translate(0.500000,0.500000),scale(1.000000,0.998622),rotate(43.993252),translate(-0.500000,-0.500000)" id="radialGradient-21">
            <stop stop-color="#FFFFFF" offset="0%"/>
            <stop stop-color="#FFFFE5" offset="9.48321368%"/>
            <stop stop-color="#FF722A" stop-opacity="0" offset="100%"/>
        </radialGradient>
        <filter x="-49.2%" y="-49.1%" width="198.4%" height="198.3%" filterUnits="objectBoundingBox" id="filter-22">
            <feGaussianBlur stdDeviation="6.36288318" in="SourceGraphic"/>
        </filter>
        <radialGradient cx="50%" cy="50%" fx="50%" fy="50%" r="47.7758639%" gradientTransform="translate(0.500000,0.500000),scale(1.000000,0.998426),rotate(43.998856),translate(-0.500000,-0.500000)" id="radialGradient-23">
            <stop stop-color="#FFFFFF" offset="0%"/>
            <stop stop-color="#FFFFE5" offset="9.48321368%"/>
            <stop stop-color="#FF722A" stop-opacity="0" offset="100%"/>
        </radialGradient>
        <filter x="-47.0%" y="-46.9%" width="194.0%" height="193.9%" filterUnits="objectBoundingBox" id="filter-24">
            <feGaussianBlur stdDeviation="6.36288318" in="SourceGraphic"/>
        </filter>
        <radialGradient cx="50%" cy="50%" fx="50%" fy="50%" r="47.7717204%" gradientTransform="translate(0.500000,0.500000),scale(1.000000,0.998606),rotate(43.993710),translate(-0.500000,-0.500000)" id="radialGradient-25">
            <stop stop-color="#FFFFFF" offset="0%"/>
            <stop stop-color="#FFFFE5" offset="9.48321368%"/>
            <stop stop-color="#FF722A" stop-opacity="0" offset="100%"/>
        </radialGradient>
        <filter x="-51.1%" y="-51.1%" width="202.3%" height="202.1%" filterUnits="objectBoundingBox" id="filter-26">
            <feGaussianBlur stdDeviation="6.36288318" in="SourceGraphic"/>
        </filter>
        <radialGradient cx="50%" cy="50%" fx="50%" fy="50%" r="47.7694692%" gradientTransform="translate(0.500000,0.500000),scale(1.000000,0.998703),rotate(43.990913),translate(-0.500000,-0.500000)" id="radialGradient-27">
            <stop stop-color="#FFFFFF" offset="0%"/>
            <stop stop-color="#FFFFE5" offset="9.48321368%"/>
            <stop stop-color="#FF722A" stop-opacity="0" offset="100%"/>
        </radialGradient>
        <filter x="-52.2%" y="-52.1%" width="204.4%" height="204.2%" filterUnits="objectBoundingBox" id="filter-28">
            <feGaussianBlur stdDeviation="6.36288318" in="SourceGraphic"/>
        </filter>
        <radialGradient cx="50%" cy="50%" fx="50%" fy="50%" r="47.7701558%" gradientTransform="translate(0.500000,0.500000),scale(1.000000,0.998674),rotate(43.991766),translate(-0.500000,-0.500000)" id="radialGradient-29">
            <stop stop-color="#FFFFFF" offset="0%"/>
            <stop stop-color="#FFFFE5" offset="9.48321368%"/>
            <stop stop-color="#FF722A" stop-opacity="0" offset="100%"/>
        </radialGradient>
        <filter x="-54.1%" y="-54.0%" width="208.1%" height="208.0%" filterUnits="objectBoundingBox" id="filter-30">
            <feGaussianBlur stdDeviation="6.36288318" in="SourceGraphic"/>
        </filter>
        <radialGradient cx="50%" cy="50%" fx="50%" fy="50%" r="47.7768827%" gradientTransform="translate(0.500000,0.500000),scale(1.000000,0.998382),rotate(44.000122),translate(-0.500000,-0.500000)" id="radialGradient-31">
            <stop stop-color="#FFFFFF" offset="0%"/>
            <stop stop-color="#FFFFE5" offset="9.48321368%"/>
            <stop stop-color="#FF722A" stop-opacity="0" offset="100%"/>
        </radialGradient>
        <filter x="-50.1%" y="-50.0%" width="200.1%" height="200.0%" filterUnits="objectBoundingBox" id="filter-32">
            <feGaussianBlur stdDeviation="6.36288318" in="SourceGraphic"/>
        </filter>
    </defs>
    <g id="Bg-Space-0" stroke="none" stroke-width="1" fill="none" fill-rule="evenodd" opacity="0.20156715">
        <g id="Group" transform="translate(-1233.399337, -938.525269)" fill-rule="nonzero">
            <g id="Large-Stars" style="mix-blend-mode: lighten;" transform="translate(475.625518, 120.894780)">
                <path d="M2028.36205,965.86976 C2016.04819,963.582637 2004.19116,971.644539 2001.79013,983.936701 C1999.38911,996.228864 2007.34089,1008.16002 2019.61029,1010.67475 C2031.8797,1013.18948 2043.88397,1005.3485 2046.51218,993.1029 C2049.00911,980.572889 2040.8879,968.387513 2028.36205,965.86976 L2028.36205,965.86976 Z" id="Path" fill="url(#radialGradient-1)" filter="url(#filter-2)"/>
                <path d="M1015.26379,824.088815 C994.791218,819.698426 974.716321,832.26512 970.437283,852.165037 C966.158244,872.064954 979.28169,891.773985 999.770174,896.180282 C1020.25866,900.586578 1040.33355,888.019884 1044.61259,868.119967 C1048.89163,848.22005 1035.75228,828.495112 1015.26379,824.088815 Z" id="Path" fill="url(#radialGradient-3)" filter="url(#filter-4)"/>
                <path d="M1398.03894,931.176139 C1387.48884,928.506447 1376.32299,931.811039 1368.92516,939.792514 C1361.52733,947.773988 1359.07852,959.158181 1362.54013,969.475594 C1366.00175,979.793008 1374.82118,987.396569 1385.53587,989.301077 C1402.04756,992.848384 1418.24109,982.715493 1421.69296,966.66512 C1425.14482,950.614747 1414.55062,934.723447 1398.03894,931.176139 Z" id="Path" fill="url(#radialGradient-5)" filter="url(#filter-6)"/>
                <path d="M910.021707,1402.28401 C891.394366,1398.24358 873.021541,1409.72858 869.124275,1427.89461 C865.227009,1446.06065 877.205137,1464.0517 895.896106,1468.06031 C914.587075,1472.06893 932.912179,1460.61574 936.809445,1442.44971 C940.706711,1424.28368 928.712676,1406.30853 910.021707,1402.28401 Z" id="Path" fill="url(#radialGradient-7)" filter="url(#filter-8)"/>
                <path d="M1344.0976,1575.79983 C1341.10291,1579.34503 1339.67456,1583.95345 1340.1393,1588.57087 C1340.60404,1593.18828 1342.92211,1597.41963 1346.56321,1600.29693 C1354.1374,1606.47698 1365.24699,1605.54121 1371.6807,1598.18128 C1374.67538,1594.63608 1376.10373,1590.02766 1375.63899,1585.41024 C1375.17425,1580.79283 1372.85619,1576.56148 1369.21508,1573.68418 C1361.6409,1567.50413 1350.5313,1568.4399 1344.0976,1575.79983 Z" id="Path" fill="url(#radialGradient-9)" filter="url(#filter-10)"/>
                <path d="M2488.98708,1800.48915 C2484.93291,1805.27904 2482.99748,1811.50985 2483.62427,1817.75376 C2484.25106,1823.99768 2487.38635,1829.71946 2492.31168,1833.60795 C2502.54835,1841.97096 2517.57234,1840.71134 2526.27357,1830.76056 C2530.32773,1825.97067 2532.26317,1819.73986 2531.63638,1813.49595 C2531.00959,1807.25203 2527.8743,1801.53025 2522.94896,1797.64176 C2512.71229,1789.27875 2497.6883,1790.53837 2488.98708,1800.48915 Z" id="Path" fill="url(#radialGradient-11)" filter="url(#filter-12)"/>
                <path d="M1152.16123,1842.92958 C1136.14267,1839.49362 1120.42635,1849.29246 1117.16537,1864.89743 C1114.27854,1876.647 1118.80797,1888.97325 1128.61571,1896.05805 C1138.42345,1903.14286 1151.54861,1903.56973 1161.79597,1897.13717 C1172.04334,1890.70462 1177.36412,1878.69874 1175.24685,1866.78642 C1173.12958,1854.87409 1163.99757,1845.43702 1152.16123,1842.92958 Z" id="Path" fill="url(#radialGradient-13)" filter="url(#filter-14)"/>
                <path d="M1794.11251,1498.45899 C1777.18724,1494.81624 1760.58012,1505.21955 1757.04872,1521.66761 C1753.51732,1538.11566 1764.36603,1554.42055 1781.30721,1558.0633 C1798.24838,1561.70605 1814.8396,1551.31864 1818.371,1534.85468 C1821.9024,1518.39072 1811.05369,1502.10174 1794.11251,1498.45899 Z" id="Path" fill="url(#radialGradient-15)" filter="url(#filter-16)"/>
                <path d="M1384.10423,1168.52759 C1373.26656,1166.4782 1362.80319,1173.5492 1360.66247,1184.3692 C1358.52176,1195.18919 1365.50426,1205.71183 1376.30582,1207.94372 C1387.10737,1210.17561 1397.68852,1203.2821 1400.01143,1192.49975 C1402.21875,1181.49124 1395.10536,1170.77137 1384.10423,1168.52759 L1384.10423,1168.52759 Z" id="Path" fill="url(#radialGradient-17)" filter="url(#filter-18)"/>
                <path d="M1575.40431,963.499586 C1560.13983,960.669692 1545.44533,970.665828 1542.47111,985.902848 C1539.4969,1001.13987 1549.35353,1015.9283 1564.56172,1019.04657 C1579.76992,1022.16484 1594.65096,1012.44859 1597.91301,997.270588 C1599.42443,989.805648 1597.89941,982.046141 1593.67528,975.708444 C1589.45114,969.370746 1582.87602,964.97718 1575.40431,963.499586 L1575.40431,963.499586 Z" id="Path" fill="url(#radialGradient-19)" filter="url(#filter-20)"/>
                <path d="M2281.84341,1191.11582 C2271.36656,1189.17183 2261.27969,1196.03179 2259.23737,1206.48993 C2257.19506,1216.94806 2263.95998,1227.09892 2274.39847,1229.23937 C2284.83696,1231.37983 2295.05091,1224.71055 2297.28931,1214.29263 C2298.31485,1209.1709 2297.26361,1203.85156 2294.36688,1199.50498 C2291.47015,1195.1584 2286.96527,1192.14069 2281.84341,1191.11582 L2281.84341,1191.11582 Z" id="Path" fill="url(#radialGradient-21)" filter="url(#filter-22)"/>
                <path d="M1961.34499,1486.84673 C1950.37898,1484.80908 1939.81899,1491.98744 1937.67924,1502.93398 C1935.53949,1513.88052 1942.61913,1524.50695 1953.54526,1526.74861 C1964.47138,1528.99028 1975.16332,1522.00998 1977.50671,1511.10522 C1979.70307,1499.95132 1972.48427,1489.11603 1961.34499,1486.84673 L1961.34499,1486.84673 Z" id="Path" fill="url(#radialGradient-23)" filter="url(#filter-24)"/>
                <path d="M2284.49992,1694.75394 C2274.41339,1692.8835 2264.70429,1699.49222 2262.74506,1709.56188 C2260.78584,1719.63153 2267.30876,1729.39848 2277.36076,1731.44635 C2287.41277,1733.49422 2297.23681,1727.0576 2299.37316,1717.02403 C2301.39182,1706.77194 2294.7432,1696.81679 2284.49992,1694.75394 L2284.49992,1694.75394 Z" id="Path" fill="url(#radialGradient-25)" filter="url(#filter-26)"/>
                <path d="M897.136868,1843.74085 C887.259648,1841.90435 877.747487,1848.37 875.820658,1858.22999 C873.893829,1868.08999 880.272136,1877.66094 890.114081,1879.67794 C899.956026,1881.69494 909.584956,1875.40451 911.691964,1865.58144 C912.661135,1860.75477 911.671675,1855.7408 908.941566,1851.64414 C906.211457,1847.54749 901.964695,1844.70426 897.136868,1843.74085 L897.136868,1843.74085 Z" id="Path" fill="url(#radialGradient-27)" filter="url(#filter-28)"/>
                <path d="M777.244242,1864.32477 C767.711822,1862.56065 758.537612,1868.80484 756.682059,1878.31988 C754.826506,1887.83492 760.982328,1897.06866 770.47912,1899.01547 C779.975912,1900.96229 789.268318,1894.89539 791.306214,1885.41773 C793.246679,1875.71018 786.95139,1866.26725 777.244242,1864.32477 L777.244242,1864.32477 Z" id="Path" fill="url(#radialGradient-29)" filter="url(#filter-30)"/>
                <path d="M1048.5894,1495.11848 C1038.29934,1493.23828 1028.4128,1499.98998 1026.41947,1510.25872 C1024.42614,1520.52746 1031.06862,1530.48771 1041.3148,1532.59393 C1051.56098,1534.70016 1061.59373,1528.1677 1063.81259,1517.94532 C1065.89968,1507.44059 1059.08947,1497.22884 1048.5894,1495.11848 Z" id="Path" fill="url(#radialGradient-31)" filter="url(#filter-32)"/>
            </g>
        </g>
    </g>
</svg>