<?xml version="1.0"?>
<svg xmlns="http://www.w3.org/2000/svg" height="512px" viewBox="-41 0 374 374.10622" width="512px"><g><path d="m287.664062 75.746094-140.605468-74.921875c-2.085938-1.113281-4.585938-1.097657-6.65625.039062l-136.714844 74.921875c-2.242188 1.230469-3.6328125 3.582032-3.6328125 6.140625v97.867188c.0820315 80.449219 47.7460935 153.230469 121.4570315 185.460937l18.976562 8.269532c1.773438.773437 3.792969.777343 5.570313.007812l21.382812-9.234375c75.078125-31.53125 123.921875-105.015625 123.929688-186.445313v-95.925781c0-2.585937-1.425782-4.964843-3.707032-6.179687zm-73.3125 82.71875-86.117187 70.058594c-2.945313 2.398437-7.269531 2.007812-9.738281-.882813l-36.976563-43.300781c-2.511719-2.941406-2.164062-7.359375.777344-9.871094 2.941406-2.507812 7.359375-2.160156 9.871094.777344l32.535156 38.101562 80.808594-65.742187c3-2.441407 7.410156-1.988281 9.847656 1.011719 2.441406 3 1.988281 7.410156-1.011719 9.847656zm0 0" data-original="#000000" class="active-path" data-old_color="#000000" fill="#1890FF"/></g> </svg>
